# xmcd
#
# Track frame offsets:
#	150
#	13774
#	30574
#	44272
#	59005
#	69369
#	82867
#	96240
#	108963
#	125079
#	137482
#	154464
#	169855
#	180219
#	205022
#
# Disc length: 2915 seconds
#
# Revision: 0
# Processed by: cddbd v1.5PL3 Copyright (c) Steve Scherf et al.
# Submitted via: dBpowerAMP V4.0
#
DISCID=c30b610f
DTITLE=John Anderson - Anthology [CD1]
DYEAR=1900
DGENRE=
TTITLE0=Your Lying Blue Eyes
TTITLE1=I'm Just An Old Chunk Of Coal
TTITLE2=I Love You A Thousand Ways
TTITLE3=Long Black Veil
TTITLE4=She Just Started Liking Cheatin' Songs
TTITLE5=1959
TTITLE6=Would You Catch A Falling Star
TTITLE7=Wild And Blue
TTITLE8=I Just Came Home To Count The Memories
TTITLE9=Chicken Truck
TTITLE10=Honky Tonk Crowd
TTITLE11=Down In Tennessee
TTITLE12=Let Someone Else Drive
TTITLE13=Occasional Eagle
TTITLE14=Swingin'
EXTD=
EXTT0=
EXTT1=
EXTT2=
EXTT3=
EXTT4=
EXTT5=
EXTT6=
EXTT7=
EXTT8=
EXTT9=
EXTT10=
EXTT11=
EXTT12=
EXTT13=
EXTT14=
PLAYORDER=
